<?xml version="1.0" encoding="UTF-8" standalone="no"?>
<!-- Created with Inkscape (http://www.inkscape.org/) -->

<svg
   xmlns:dc="http://purl.org/dc/elements/1.1/"
   xmlns:cc="http://creativecommons.org/ns#"
   xmlns:rdf="http://www.w3.org/1999/02/22-rdf-syntax-ns#"
   xmlns:svg="http://www.w3.org/2000/svg"
   xmlns="http://www.w3.org/2000/svg"
   xmlns:sodipodi="http://sodipodi.sourceforge.net/DTD/sodipodi-0.dtd"
   xmlns:inkscape="http://www.inkscape.org/namespaces/inkscape"
   width="8mm"
   height="8mm"
   viewBox="0 0 8.0000001 8"
   version="1.1"
   id="svg8"
   inkscape:version="0.92.4 (5da689c313, 2019-01-14)"
   sodipodi:docname="favicon.svg"
   inkscape:export-filename="C:\Users\ben\kazia.uk\favicon.png"
   inkscape:export-xdpi="101.6"
   inkscape:export-ydpi="101.6">
  <defs
     id="defs2" />
  <sodipodi:namedview
     id="base"
     pagecolor="#ffffff"
     bordercolor="#666666"
     borderopacity="1.0"
     inkscape:pageopacity="0.0"
     inkscape:pageshadow="2"
     inkscape:zoom="1"
     inkscape:cx="173.00617"
     inkscape:cy="31.030192"
     inkscape:document-units="mm"
     inkscape:current-layer="layer1"
     showgrid="false"
     fit-margin-top="0"
     fit-margin-left="0"
     fit-margin-right="0"
     fit-margin-bottom="0"
     inkscape:window-width="1920"
     inkscape:window-height="1017"
     inkscape:window-x="-8"
     inkscape:window-y="32"
     inkscape:window-maximized="1" />
  <metadata
     id="metadata5">
    <rdf:RDF>
      <cc:Work
         rdf:about="">
        <dc:format>image/svg+xml</dc:format>
        <dc:type
           rdf:resource="http://purl.org/dc/dcmitype/StillImage" />
        <dc:title />
      </cc:Work>
    </rdf:RDF>
  </metadata>
  <g
     inkscape:label="Layer 1"
     inkscape:groupmode="layer"
     id="layer1"
     transform="translate(-20.371284,-53.793406)">
    <g
       aria-label="K"
       style="font-style:normal;font-variant:normal;font-weight:normal;font-stretch:normal;font-size:10.58333302px;line-height:1.25;font-family:santhin;-inkscape-font-specification:santhin;letter-spacing:0px;word-spacing:0px;fill:#000000;fill-opacity:1;stroke:none;stroke-width:0.26458332"
       id="text12"
       transform="translate(1.8370036,-0.141634)">
      <path
         d="m 20.870635,61.788812 v 0 q -0.129191,0.02067 -0.232544,-0.05168 -0.09819,-0.06718 -0.129191,-0.196371 -0.180867,-1.028361 -0.124023,-2.242757 0.05168,-1.214396 0.217041,-2.330607 0.165364,-1.116211 0.320394,-1.850016 0.155029,-0.733806 0.1757,-0.800985 0,0 0,0 0.03617,-0.129191 0.139526,-0.191203 0.103353,-0.06718 0.232544,-0.04134 0.129191,0.03101 0.191203,0.139527 0.06718,0.103352 0.04134,0.232543 0,0 0,0.0052 -0.04134,0.124024 -0.26355,1.240234 -0.217041,1.116211 -0.37207,2.635498 0.418579,-0.320393 2.955892,-2.697509 0.01033,-0.01034 0.01033,-0.01034 0.118856,-0.08268 0.201538,-0.05168 0.08785,0.03101 0.124023,0.124023 0.03617,0.08785 -0.07751,0.186036 -0.02067,0.02067 -1.483114,1.260905 -1.457275,1.235066 -1.751831,1.441772 0,0.0052 0,0.01033 -0.01033,0.09819 -0.0155,0.196371 0.8785,1.142049 1.51412,1.441772 0.640787,0.294556 0.997355,0.0155 0.361735,-0.279053 0.966349,-1.565796 0.02067,-0.03617 0.05684,-0.04651 0.03617,-0.0155 0.07235,0 0.03617,0.0155 0.05168,0.05168 0.0155,0.03617 0,0.07235 -0.589112,1.286743 -1.059367,1.715657 -0.470256,0.428915 -1.173055,0.232544 -0.7028,-0.19637 -1.51412,-1.105875 0.01034,0.852661 0.1757,1.81901 0.02067,0.129191 -0.05168,0.232544 -0.06718,0.103353 -0.196371,0.129191 z"
         style="stroke-width:0.26458332"
         id="path14"
         inkscape:connector-curvature="0" />
    </g>
  </g>
</svg>
